# xmcd
#
# Track frame offsets: 
#        150
#        12755
#        24585
#        41180
#        58477
#        71622
#        90032
#        100932
#        114885
#        129327
#        147600
#
# Disc length: 2146 seconds
#
# Revision: 0
# Processed by: cddbd v1.5.1PL0 Copyright (c) Steve Scherf et al.
# Submitted via: ExactAudioCopy v0.95a5
#
DISCID=9108600b
DTITLE=Bob Jares - I Like To Drive
DYEAR=1998
DGENRE=Country
TTITLE0=Almost aturday night
TTITLE1=Joined at the heart
TTITLE2=I like to drive
TTITLE3=Love lock
TTITLE4=Poor little fool
TTITLE5=Mother road
TTITLE6=Rave on
TTITLE7=Me not lovin' you
TTITLE8=Driver's seat
TTITLE9=Steady as a heartbeat
TTITLE10=One man's pain
EXTD=
EXTT0=
EXTT1=
EXTT2=
EXTT3=
EXTT4=
EXTT5=
EXTT6=
EXTT7=
EXTT8=
EXTT9=
EXTT10=
PLAYORDER=
